<?xml version="1.0" encoding="UTF-8"?>
<svg version="1.1" xmlns="http://www.w3.org/2000/svg" width="1024" height="1024" viewBox="0 0 1024 1024">
  <!-- Add a white circle background for the icon -->
  <rect width="1024" height="1024" fill="white" />
  <!-- Scale and center the logo paths (roughly 60% size) -->
  <g transform="translate(512, 512) scale(1.2)">
    <g transform="translate(-256, -256)">
      <path d="M375.268 11.86c.845-.006 1.69-.012 2.561-.018.919-.001 1.838-.002 2.785-.003.974-.005 1.949-.01 2.953-.015 3.224-.015 6.448-.022 9.672-.027 2.242-.006 4.484-.012 6.726-.017 4.702-.011 9.403-.017 14.105-.021 6.019-.005 12.038-.03 18.057-.058 4.632-.019 9.263-.024 13.895-.025 2.219-.003 4.438-.011 6.656-.024 3.107-.018 6.213-.015 9.32-.009.913-.01 1.826-.019 2.766-.028 5.511.036 9.362.75 14.235 3.383 3.673 3.867 5.116 6.923 5.147 12.217.011 1.289.011 1.289.022 2.604.003.94.006 1.88.008 2.848.007.992.014 1.984.021 3.006.02 3.29.031 6.579.041 9.868.004 1.124.008 2.247.012 3.405.021 5.948.035 11.897.045 17.845.011 6.139.045 12.278.085 18.417.026 4.725.034 9.449.038 14.174.005 2.262.016 4.525.035 6.787.025 3.172.024 6.342.017 9.514.02 1.394.02 1.394.04 2.817-.048 5.941-1.058 10.566-4.509 15.498-5.159 4.021-11.236 3.483-17.5 3.439-1.02.02-2.04.04-3.09.06-6.132-.004-9.744-.417-14.41-4.498-4.835-5.168-4.139-11.583-4.099-18.239.002-1.321.002-1.321.004-2.669.006-2.801.018-5.603.031-8.405.005-1.904.01-3.808.014-5.712.011-4.659.028-9.317.049-13.975-5.806 4.695-11.564 9.38-17 14.5-4.606 4.293-9.378 8.304-14.285 12.254-2.821 2.334-5.521 4.766-8.215 7.246-3.557 3.274-7.172 6.406-10.938 9.437-3.994 3.222-7.808 6.569-11.562 10.063-4.61 4.289-9.378 8.304-14.285 12.254-2.821 2.334-5.521 4.766-8.215 7.246-3.557 3.274-7.172 6.406-10.938 9.437-3.994 3.222-7.808 6.569-11.562 10.062-4.61 4.29-9.378 8.305-14.285 12.254-2.822 2.335-5.522 4.766-8.215 7.247-3.557 3.274-7.173 6.406-10.939 9.437-3.994 3.222-7.808 6.569-11.562 10.063-4.61 4.289-9.378 8.304-14.285 12.254-2.821 2.334-5.521 4.766-8.215 7.246-3.557 3.274-7.172 6.406-10.938 9.437-3.994 3.222-7.808 6.569-11.562 10.063-4.61 4.289-9.378 8.304-14.285 12.254-2.821 2.334-5.521 4.766-8.215 7.246-3.557 3.274-7.172 6.406-10.938 9.437-3.91 3.294-7.795 6.734-11.633 10.312-12.218 11.359-12.218 11.359-19.829 11.39-4.83.003-9.66.002-14.498 0-6.131-.015-12.261-.022-18.392-.027-2.201-.005-4.402-.01-6.603-.016-4.617-.01-9.235-.016-13.853-.02-5.915-.005-11.83-.029-17.745-.058-4.547-.018-9.095-.024-13.642-.025-2.18-.003-4.361-.011-6.541-.024-3.053-.017-6.104-.015-9.156-.009-.9-.01-1.799-.019-2.726-.028-5.086.034-8.594.55-12.996 3.384-5.364 5.799-5.235 10.733-5.312 18.25-.029.929-.058 1.859-.088 2.816-.057 6.208.607 9.945 4.401 14.934 4.256 3.356 8.183 3.394 13.395 3.29.833-.004 1.666-.009 2.525-.013 1.805-.01 3.61-.027 5.415-.05 2.864-.032 5.727-.04 8.591-.042 8.141-.006 16.282-.034 24.423-.126 4.986-.055 9.97-.065 14.957-.048 1.892-.002 3.785-.02 5.677-.056 12.488-.458 12.488-.458 23.07 5.45c1.347 1.509 2.668 3.037 3.947 4.599 1.797 1.498 3.606 2.983 5.437 4.439 4.775 3.862 9.299 7.94 13.816 12.098 2.665 2.392 5.394 4.658 8.184 6.903 4.535 3.658 8.819 7.51 13.081 11.477 4.087 3.781 8.36 7.284 12.699 10.775 3.022 2.512 5.906 5.136 8.782 7.812 4.61 4.289 9.378 8.304 14.285 12.254 2.822 2.335 5.521 4.766 8.216 7.246 3.556 3.275 7.172 6.407 10.938 9.438 3.994 3.222 7.808 6.569 11.562 10.063 4.61 4.289 9.378 8.304 14.285 12.254 2.822 2.335 5.521 4.766 8.215 7.246 3.557 3.275 7.173 6.407 10.939 9.438 3.994 3.222 7.808 6.569 11.562 10.063 4.61 4.289 9.378 8.304 14.285 12.253 2.822 2.335 5.521 4.766 8.215 7.247 3.557 3.274 7.172 6.407 10.939 9.438 3.994 3.222 7.808 6.569 11.562 10.063 4.61 4.289 9.378 8.304 14.285 12.254 2.822 2.335 5.521 4.766 8.215 7.246 3.557 3.274 7.172 6.407 10.938 9.438 3.994 3.222 7.808 6.569 11.562 10.063 4.536 3.663 8.821 7.515 13.083 11.482 4.076 3.77 8.336 7.264 12.664 10.742 3.769 3.136 7.359 6.448 10.933 9.803 3.686 3.444 3.686 3.444 5.882 4.543-1.024-.02-2.048-.04-3.103-.06-3.823-.077-7.645-.165-11.467-.258-1.65-.038-3.3-.073-4.949-.104-2.381-.046-4.762-.104-7.142-.164-.73-.012-1.459-.023-2.21-.035-5.13-.146-10.764-.428-14.871-3.817-4.555-6.282-4.501-10.181-4.571-17.813-.029-1.038-.058-2.075-.088-3.144-.052-6.21.226-9.882 4.401-14.6 3.784-3.428 7.262-4.12 12.261-4.14 5.006 0 8.49 1.107 13.49 1.11z" fill="black" />
      <path d="M460.458 177.65c1.608-.016 3.216-.044 4.824-.082 2.32-.055 4.64-.077 6.96-.091.717-.023 1.434-.046 2.173-.069 3.283.014 5.193.276 7.776 2.355 2.821 5.047 2.353 9.93 2.304 15.618.005 1.272.01 2.544.015 3.854.012 3.527 0 7.054-.016 10.58-.013 3.805-.003 7.61.004 11.414.01 7.452-.001 14.903-.02 22.355-.021 8.674-.021 17.349-.02 26.024.001 15.474-.017 30.949-.046 46.424-.028 15.023-.042 30.046-.041 45.069 0 1.388 0 1.388 0 2.804 0 1.386 0 1.386 0 2.799.001 17.094-.011 34.188-.029 51.283-.006 6.049-.008 12.099-.009 18.148-.001 7.369-.01 14.739-.029 22.109-.009 3.761-.015 7.523-.013 11.284.003 4.073-.01 8.146-.024 12.22.003 1.194.006 2.389.01 3.61-.007 1.088-.013 2.176-.02 3.297-.001.94-.003 1.88-.004 2.849-.268 2.637-.854 4.249-2.253 6.485-4.745 3.434-11.264 2.334-16.843 2.316-2.083-.003-4.165.02-6.248.046-1.32.001-2.639.001-3.998.002-1.205.003-2.41.006-3.652.009-3.619-.413-5.444-1.076-8.258-3.376-1.757-3.564-2.25-6.442-2.254-10.392-.006-1.076-.012-2.152-.018-3.26-.004-1.176-.008-2.352-.012-3.563-.004-1.249-.008-2.498-.012-3.789-.01-3.477-.008-6.955-.004-10.432.003-3.751-.006-7.502-.014-11.253-.013-7.348-.015-14.697-.012-22.045-.002-5.972-.004-11.944-.008-17.915 0-.85.001-1.7.001-2.575-.001-1.726-.002-3.452-.004-5.178-.011-16.189-.009-32.378-.003-48.567.005-14.792-.006-29.584-.025-44.376-.02-15.208-.028-30.416-.024-45.624.002-8.539 0-17.078-.014-25.617-.012-7.269-.013-14.538-.001-21.807.006-3.719.007-7.438-.005-11.16-.013-4.02-.003-8.039.01-12.059-.007-1.17-.015-2.34-.023-3.55-.067-10.024-.067-10.024 3.262-14.787 4.592-2.296 11.358-1.312 16.458-1.35z" fill="black" />
      <path d="M370.688 232.469c1.109-.006 1.109-.006 2.241-.012 1.56-.002 3.12.005 4.68.022 2.384.021 4.765 0 7.15-.026 1.518-.013 3.036-.008 4.554 0 .711-.008 1.421-.016 2.153-.025 3.029.057 5.146.309 7.723 1.948 2.828 4.071 2.36 8.01 2.313 12.856.008 1.581.008 1.581.017 3.195.013 3.544-.002 7.087-.017 10.63-.004 2.536.002 5.072.009 7.608.012 6.18.006 12.36-.009 18.54-.017 7.194-.014 14.389-.01 21.583.006 12.836-.008 25.671-.033 38.507-.024 12.459-.031 24.918-.02 37.377.011 13.562.013 27.125-.001 40.687-.002 1.446-.003 2.892-.005 4.338-.001.711-.002 1.422-.002 2.155-.005 5.016-.003 10.033.001 15.05.005 6.75-.006 13.5-.027 20.25-.006 2.482-.006 4.964-.001 7.446.006 3.379-.006 6.758-.023 10.137.006.989.012 1.979.018 2.998-.008.904-.017 1.808-.025 2.74-.001.78-.002 1.56-.003 2.364-.483 2.75-1.483 4.124-3.377 6.151-5.072 1.69-10.461 1.225-15.77 1.24-2.091.01-4.182.041-6.273.072-1.337.007-2.675.012-4.012.016-1.817.014-1.817.014-3.671.028-3.563-.388-5.432-1.214-8.274-3.356-1.164-2.327-1.128-3.672-1.134-6.264-.004-.9-.009-1.8-.013-2.727-.001-1-.001-2-.001-3.026-.003-1.052-.007-2.104-.011-3.189-.011-3.55-.015-7.1-.019-10.65-.006-2.536-.013-5.071-.02-7.607-.019-7.626-.03-15.251-.039-22.877-.004-3.589-.01-7.178-.015-10.767-.017-11.926-.031-23.853-.039-35.779-.002-3.088-.004-6.177-.006-9.273-.001-.77-.001-1.539-.001-2.332-.009-12.471-.034-24.942-.066-37.413-.033-12.797-.051-25.594-.054-38.39-.002-7.188-.011-14.375-.037-21.563-.024-6.758-.028-13.517-.017-20.275.001-2.485-.006-4.97-.02-7.455-.018-3.384-.011-6.767.002-10.151-.011-.991-.022-1.982-.033-3.003.063-6.599.063-6.599 2.332-9.869 3.19-2.025 6.22-1.964 9.877-1.922z" fill="black" />
      <path d="M288.566 287.371c.716-.002 1.432-.004 2.169-.007 1.507.001 3.014.015 4.521.04 2.303.034 4.602.02 6.905.001 1.468.007 2.936.017 4.404.03.686-.005 1.371-.01 2.077-.015 3.051.075 5.012.341 7.538 2.102 2.532 3.452 2.37 6.564 2.32 10.683.008 1.251.008 1.251.017 2.528.013 2.8.002 5.599-.013 8.399.004 2.006.009 4.011.016 6.017.014 5.45.003 10.9-.013 16.35-.014 5.698-.008 11.395-.004 17.092.002 9.567-.011 19.135-.034 28.703-.027 11.071-.028 22.142-.017 33.213.011 10.639.005 21.278-.009 31.918-.004 4.533-.004 9.066.002 13.599.005 5.334-.005 10.669-.027 16.003-.005 1.961-.005 3.922 0 5.882.006 2.671-.006 5.34-.023 8.01.006.782.012 1.564.018 2.37-.062 5.207-.062 5.207-1.743 7.65-5.137 3.266-11.624 2.24-17.487 2.239-2.103.002-4.205.02-6.307.039-1.34.004-2.68.006-4.021.006-1.216.001-2.433.004-3.687.008-3.054-.235-4.7-.454-7.158-2.243-2.58-3.726-2.287-7.723-2.274-12.079-.005-.815-.01-1.63-.016-2.476-.015-2.753-.016-5.507-.016-8.261-.008-1.973-.016-3.946-.025-5.918-.022-5.362-.03-10.725-.035-16.086-.004-3.349-.01-6.698-.017-10.046-.025-11.675-.038-23.35-.041-35.026.004-10.892-.025-21.783-.067-32.675-.035-9.346-.05-18.692-.051-28.038-.001-5.584-.01-11.168-.038-16.753-.026-5.25-.028-10.5-.012-15.751.002-1.928-.005-3.856-.021-5.784-.02-2.632-.01-5.26.008-7.891-.013-.765-.026-1.53-.04-2.318.062-3.935.525-5.72 2.972-8.861 3.41-2.576 6.123-2.735 10.239-2.655z" fill="black" />
      <path d="M205.469 342.504c1.076-.002 1.076-.002 2.174-.004 1.513.001 3.026.013 4.539.034 2.311.029 4.62.021 6.932.008 1.472.006 2.945.015 4.418.026 1.033-.004 1.033-.004 2.087-.009 3.027.059 5.121.296 7.786 1.782 3.001 3.123 2.723 6.391 2.73 10.499.004 1.218.008 2.437.013 3.692-.001 1.352-.001 1.705-.002 3.057.003 1.423.006 2.845.01 4.268.009 3.865.011 7.731.012 11.597.001 3.226.005 6.451.008 9.677.008 7.61.01 15.219.01 22.828-.001 7.853.01 15.706.026 23.559.013 6.74.018 13.48.017 20.22-.001 4.026.002 8.053.013 12.079.01 3.786.01 7.572.003 11.358-.001 1.39-.001 2.78 0 4.17.008 1.897.002 3.794-.004 5.69 0 1.062.001 2.124.001 3.218-.252 2.786-.75 4.408-2.249 6.748-4.745 3.434-11.266 2.334-16.844 2.316-2.083-.003-4.165.021-6.248.046-1.317.001-2.637.001-3.996.002-1.205.003-2.41.006-3.652.009-3.833-.438-6.51-1.624-9.258-4.372-.105-1.914-.14-3.832-.147-5.75-.007-1.249-.014-2.498-.022-3.785-.003-1.397-.005-2.795-.008-4.192-.006-1.462-.013-2.923-.02-4.385-.017-3.981-.028-7.964-.036-11.945-.005-2.486-.011-4.972-.017-7.458-.019-7.774-.033-15.547-.041-23.319-.01-8.981-.036-17.962-.077-26.943-.03-6.935-.045-13.87-.048-20.805-.002-4.145-.011-8.29-.036-12.435-.023-3.9-.027-7.8-.017-11.7.001-1.432-.006-2.864-.02-4.296-.017-1.954-.008-3.908.003-5.862-.002-1.094-.005-2.188-.007-3.315 1.193-6.787 5.944-7.41 11.964-7.312z" fill="black" />
      <path d="M47.272 383.629c2.155-.004 4.309-.04 6.464-.078 1.378-.006 2.757-.01 4.135-.012 1.247-.008 2.494-.016 3.779-.025 3.968.576 5.601 1.602 8.35 4.486.925 2.78 1.127 5.327 1.133 8.244.004.84.009 1.68.013 2.545-.001.913-.001 1.826-.002 2.766.003.968.007 1.936.01 2.933.01 3.201.012 6.401.013 9.602.003 2.224.006 4.449.01 6.673.006 4.663.008 9.326.007 13.989-.001 5.976.013 11.953.03 17.93.012 4.594.014 9.188.013 13.782.001 2.204.006 4.407.014 6.611.01 3.079.007 6.158.001 9.239.006.91.011 1.82.017 2.759-.022 4.377-.067 8.002-2.26 11.924-3.861 3.151-7.019 3.375-11.91 3.363-1.979-.001-1.979-.001-3.998-.002-.682-.008-1.364-.017-2.067-.025-2.085-.024-4.169-.02-6.254-.014-11.649-.063-11.649-.063-14.771-2.323-1.75-2.891-2.25-5.045-2.254-8.403-.005-.875-.011-1.75-.017-2.651.004-.952.008-1.904.012-2.885-.003-.951-.007-1.902-.011-2.882-.009-3.336-.003-6.671.004-10.007-.002-2.316-.003-4.633-.006-6.95-.004-4.856.001-9.711.01-14.566.012-6.228.005-12.456-.007-18.684-.007-4.784-.005-9.567.001-14.351.001-2.296.001-4.595.002-6.892-.005-3.208-.005-6.416-.011-9.624-.004-.952-.008-1.904-.012-2.885-.006-.877-.011-1.754-.017-2.655-.001-.758-.001-1.517-.001-2.298.29-2.425.992-4.023 2.251-6.105 4.803-3.497 11.581-2.372 17.272-2.37z" fill="black" />
      <path d="M129.769 383.76c2.092-.01 4.183-.04 6.274-.072 1.337-.007 2.675-.012 4.013-.016 1.817-.014 1.817-.014 3.67-.028 3.564.388 5.432 1.214 8.275 3.356 1.159 2.318 1.13 3.656 1.14 6.238.006.889.012 1.778.018 2.693.001.979.002 1.957.003 2.965.007 1.542.007 1.542.015 3.115.014 3.411.021 6.822.027 10.234.006 2.364.011 4.729.017 7.093.01 4.962.016 9.923.02 14.885.006 6.365.03 12.729.058 19.094.019 4.885.024 9.77.025 14.654.003 2.347.011 4.694.024 7.04.017 3.28.015 6.56.009 9.84.014 1.46.014 1.46.028 2.95-.005.895-.01 1.79-.016 2.711.002.775.003 1.55.004 2.35-.477 2.75-1.478 4.116-3.371 6.142-5.072 1.69-10.461 1.225-15.77 1.24-2.091.01-4.182.041-6.273.073-1.338.006-2.676.012-4.013.015-1.817.014-1.817.014-3.671.028-3.564-.388-5.432-1.214-8.274-3.356-1.159-2.319-1.131-3.657-1.141-6.238-.006-.89-.012-1.778-.018-2.694-.001-.978-.002-1.956-.003-2.964-.005-1.017-.01-2.034-.015-3.093-.015-3.411-.02-6.822-.026-10.234-.006-2.364-.011-4.729-.017-7.094-.01-4.961-.016-9.923-.019-14.884-.005-6.366-.029-12.729-.057-19.094-.019-4.885-.024-9.77-.026-14.655-.003-2.347-.011-4.694-.024-7.04-.017-3.28-.015-6.56-.009-9.84.014-1.46.014-1.46.028-2.95-.006-.894-.011-1.789-.017-2.711.002-.775.003-1.55.005-2.35.477-2.75 1.478-4.116 3.371-6.142 5.072-1.691 10.461-1.226 15.769-1.241z" fill="black" />
    </g>
  </g>
</svg>
