<?xml version="1.0" encoding="UTF-8"?>
<svg version="1.1" xmlns="http://www.w3.org/2000/svg" viewBox="0 0 512 512">
<style>
  :root { color: black; }
  @media (prefers-color-scheme: dark) {
    :root { color: white; }
  }
</style>
<path d="M0 0 C0.8452121 -0.00571014 1.69042419 -0.01142029 2.56124878 -0.01730347 C3.48029495 -0.01842133 4.39934113 -0.01953918 5.34623718 -0.02069092 C6.32068787 -0.02565582 7.29513855 -0.03062073 8.29911804 -0.03573608 C11.52275804 -0.05034082 14.74634883 -0.05715685 17.97001648 -0.06268311 C20.21197511 -0.06843586 22.45393373 -0.07419358 24.69589233 -0.07995605 C29.39753956 -0.09046118 34.09916971 -0.09630708 38.80082703 -0.09979248 C44.81990708 -0.10527674 50.83876086 -0.12930557 56.85776997 -0.15776443 C61.48950863 -0.17640468 66.12119293 -0.18159716 70.75296593 -0.18312836 C72.97168909 -0.18615217 75.19041137 -0.1941715 77.40909767 -0.20731354 C80.51592262 -0.22440299 83.62219656 -0.22248654 86.72904968 -0.21600342 C87.64202316 -0.2252182 88.55499664 -0.23443298 89.49563599 -0.243927 C95.00641135 -0.207976 98.85872238 0.50674782 103.73173523 3.14044189 C107.40525403 7.00730379 108.84859279 10.06313595 108.87890625 15.35765076 C108.88963921 16.64648163 108.88963921 16.64648163 108.90058899 17.96134949 C108.90327789 18.90112137 108.9059668 19.84089325 108.90873718 20.80914307 C108.91530838 21.80134857 108.92187958 22.79355408 108.9286499 23.81582642 C108.94838739 27.10502191 108.96004725 30.39417172 108.97001648 33.68341064 C108.97409201 34.80702814 108.97816753 35.93064564 108.98236656 37.08831215 C109.00323035 43.03675783 109.01753011 48.98518042 109.02690125 54.93365479 C109.03795944 61.07267704 109.07235205 67.21133621 109.11207294 73.35023022 C109.13824171 78.07465786 109.1465934 82.79899907 109.15018272 87.52349281 C109.15504886 89.78605918 109.16666354 92.04862168 109.18522072 94.31111717 C109.20961435 97.48262503 109.20864623 100.65319476 109.20170593 103.82476807 C109.22092102 105.21924416 109.22092102 105.21924416 109.24052429 106.64189148 C109.19328207 112.58351669 108.18301664 117.20862503 104.73173523 122.14044189 C99.57231692 126.16128487 93.49531831 125.62149399 87.23173523 125.57794189 C86.21208679 125.59792236 85.19243835 125.61790283 84.14189148 125.63848877 C78.00969312 125.63450164 74.39841116 125.22092852 69.73173523 121.14044189 C64.89734059 115.97264073 65.59362261 109.55812157 65.63407898 102.90216064 C65.6362014 101.58101006 65.6362014 101.58101006 65.6383667 100.23316956 C65.64394586 97.43139186 65.65649452 94.62969527 65.66923523 91.82794189 C65.67425292 89.92364618 65.67881536 88.0193492 65.6829071 86.11505127 C65.69390846 81.45681709 65.71115874 76.79864322 65.73173523 72.14044189 C59.92590408 76.83572705 54.16818825 81.52006172 48.73173523 86.64044189 C44.12551915 90.93391342 39.35355438 94.94483136 34.44657898 98.89434814 C31.62500028 101.22874779 28.92582811 103.66034788 26.23173523 106.14044189 C22.67503279 109.41462613 19.06011712 112.54686622 15.29423523 115.57794189 C11.29949537 118.79987291 7.48619174 122.14699685 3.73173523 125.64044189 C-0.87830813 129.92999302 -5.64609433 133.94454862 -10.55342102 137.89434814 C-13.37499972 140.22874779 -16.07417189 142.66034788 -18.76826477 145.14044189 C-22.32496721 148.41462613 -25.93988288 151.54686622 -29.70576477 154.57794189 C-33.70050463 157.79987291 -37.51380826 161.14699685 -41.26826477 164.64044189 C-45.87830813 168.92999302 -50.64609433 172.94454862 -55.55342102 176.89434814 C-58.37499972 179.22874779 -61.07417189 181.66034788 -63.76826477 184.14044189 C-67.32496721 187.41462613 -70.93988288 190.54686622 -74.70576477 193.57794189 C-78.70050463 196.79987291 -82.51380826 200.14699685 -86.26826477 203.64044189 C-90.87830813 207.92999302 -95.64609433 211.94454862 -100.55342102 215.89434814 C-103.37499972 218.22874779 -106.07417189 220.66034788 -108.76826477 223.14044189 C-112.32496721 226.41462613 -115.93988288 229.54686622 -119.70576477 232.57794189 C-123.70050463 235.79987291 -127.51380826 239.14699685 -131.26826477 242.64044189 C-135.87830813 246.92999302 -140.64609433 250.94454862 -145.55342102 254.89434814 C-148.37499972 257.22874779 -151.07417189 259.66034788 -153.76826477 262.14044189 C-157.32496721 265.41462613 -160.93988288 268.54686622 -164.70576477 271.57794189 C-168.70050463 274.79987291 -172.51380826 278.14699685 -176.26826477 281.64044189 C-180.87830813 285.92999302 -185.64609433 289.94454862 -190.55342102 293.89434814 C-193.37499972 296.22874779 -196.07417189 298.66034788 -198.76826477 301.14044189 C-202.32496721 304.41462613 -205.93988288 307.54686622 -209.70576477 310.57794189 C-213.79551067 313.87197185 -217.68029636 317.31221721 -221.51826477 320.89044189 C-233.73661958 332.2494196 -233.73661958 332.2494196 -241.34707642 332.28088379 C-242.1755307 332.28659393 -243.00398499 332.29230408 -243.85754395 332.29818726 C-244.76305496 332.29930511 -245.66856598 332.30042297 -246.60151672 332.30157471 C-247.55792053 332.30653961 -248.51432434 332.31150452 -249.49971008 332.31661987 C-252.66866268 332.33124359 -255.83756521 332.33804395 -259.00654602 332.34356689 C-261.20748903 332.34931827 -263.40843202 332.35507601 -265.609375 332.36083984 C-270.2270379 332.3713505 -274.84468339 332.37719271 -279.46235657 332.38067627 C-285.37731239 332.38616042 -291.29203796 332.41018663 -297.20692158 332.43864822 C-301.75455394 332.45727847 -306.3021309 332.46248042 -310.8497982 332.46401215 C-313.03027289 332.46703843 -315.21074661 332.47506614 -317.39118385 332.48819733 C-320.44324346 332.50526521 -323.49474116 332.50337557 -326.54682922 332.49688721 C-327.44626755 332.50610199 -328.34570587 332.51531677 -329.2723999 332.52481079 C-334.35879177 332.49096394 -337.86692192 331.97522213 -342.26826477 329.14044189 C-347.63246911 323.34130207 -347.50385154 318.40742796 -347.58076477 310.89044189 C-347.60976868 309.96102783 -347.63877258 309.03161377 -347.6686554 308.07403564 C-347.72572965 301.86611257 -347.06184528 298.12961422 -343.26826477 293.14044189 C-339.01169551 289.7844216 -335.08480786 289.74680238 -329.8730011 289.85089111 C-329.03977325 289.8551561 -328.20654541 289.85942108 -327.34806824 289.86381531 C-325.54307383 289.87409825 -323.73810696 289.89077843 -321.93322182 289.91314316 C-319.0692275 289.94548019 -316.20608624 289.95409209 -313.34191895 289.95541382 C-305.20035883 289.961015 -297.05948984 289.98990147 -288.91841125 290.08184814 C-283.93258058 290.13645784 -278.94825622 290.14689445 -273.96217918 290.12970352 C-272.06962379 290.13163839 -270.17700695 290.14997133 -268.28478432 290.18551254 C-255.79757873 290.64379005 -255.79757873 290.64379005 -245.21601868 284.73443604 C-243.8687246 283.23063599 -242.54731549 281.70269832 -241.26826477 280.14044189 C-239.47084692 278.64298426 -237.66185856 277.15902768 -235.83076477 275.70294189 C-231.05542075 271.84102514 -226.53158792 267.76369966 -222.01435852 263.60528564 C-219.34951311 261.21336892 -216.61994652 258.94789306 -213.83076477 256.70294189 C-209.29510034 253.04473175 -205.01125307 249.19301224 -200.74897766 245.22662354 C-196.66165471 241.44553631 -192.38783234 237.94354223 -188.04951477 234.45294189 C-185.02807141 231.94073056 -182.14386399 229.31641732 -179.26826477 226.64044189 C-174.65824838 222.35086429 -169.89043241 218.33633292 -164.98310852 214.38653564 C-162.16152982 212.052136 -159.46235765 209.62053591 -156.76826477 207.14044189 C-153.21156233 203.86625766 -149.59664666 200.73401756 -145.83076477 197.70294189 C-141.83602491 194.48101088 -138.02272128 191.13388694 -134.26826477 187.64044189 C-129.65822141 183.35089077 -124.89043521 179.33633517 -119.98310852 175.38653564 C-117.16152982 173.052136 -114.46235765 170.62053591 -111.76826477 168.14044189 C-108.21156233 164.86625766 -104.59664666 161.73401756 -100.83076477 158.70294189 C-96.83602491 155.48101088 -93.02272128 152.13388694 -89.26826477 148.64044189 C-84.65822141 144.35089077 -79.89043521 140.33633517 -74.98310852 136.38653564 C-72.16152982 134.052136 -69.46235765 131.62053591 -66.76826477 129.14044189 C-63.21156233 125.86625766 -59.59664666 122.73401756 -55.83076477 119.70294189 C-51.83602491 116.48101088 -48.02272128 113.13388694 -44.26826477 109.64044189 C-39.65822141 105.35089077 -34.89043521 101.33633517 -29.98310852 97.38653564 C-27.16152982 95.052136 -24.46235765 92.62053591 -21.76826477 90.14044189 C-18.21156233 86.86625766 -14.59664666 83.73401756 -10.83076477 80.70294189 C-6.29510034 77.04473175 -2.01125307 73.19301224 2.25102234 69.22662354 C6.32686767 65.45615399 10.58679883 61.96213752 14.91532898 58.48419189 C18.68406565 55.34793392 22.27436226 52.03597595 25.84892273 48.68145752 C29.53497912 45.23881995 29.53497912 45.23881995 31.73173523 44.14044189 C30.70813904 44.12062256 29.68454285 44.10080322 28.62992859 44.0803833 C24.80726348 44.00391467 20.98495868 43.91526323 17.16264343 43.82305908 C15.51297658 43.7849389 13.86323141 43.75005739 12.21342468 43.71856689 C9.83252601 43.6725453 7.45215871 43.61461554 5.07157898 43.55450439 C4.3421257 43.54295319 3.61267242 43.53140198 2.8611145 43.51950073 C-2.26968773 43.37390262 -7.90339361 43.09172573 -12.01045227 39.70294189 C-16.56507703 33.42070085 -16.51070665 29.52210683 -16.58076477 21.89044189 C-16.60976868 20.85274658 -16.63877258 19.81505127 -16.6686554 18.74591064 C-16.72025091 12.53063584 -16.44316774 8.85754006 -12.26826477 4.14044189 C-8.48476405 0.71164437 -5.00611678 0.02034276 0 0 Z " fill="currentColor" transform="translate(375.2682647705078,11.85955810546875)"/>
<path d="M0 0 C1.60822006 -0.01656619 3.21636628 -0.04386555 4.82421875 -0.08203125 C7.1447562 -0.13681709 9.46357085 -0.15867261 11.78466797 -0.17333984 C12.50145721 -0.19600922 13.21824646 -0.21867859 13.95675659 -0.24203491 C17.2399941 -0.22815054 19.14927713 0.03370418 21.73304176 2.11274624 C24.55389426 7.15966537 24.08601497 12.04292048 24.03695679 17.73121643 C24.04178562 19.00265108 24.04661445 20.27408572 24.05158961 21.58404869 C24.06441503 25.11108207 24.05228239 28.6376562 24.03606105 32.16465938 C24.02290493 35.9690611 24.03280441 39.77341157 24.03982544 43.57781982 C24.04991007 51.02952875 24.03862572 58.4810602 24.02012484 65.93274707 C23.99936161 74.60725689 23.99949708 83.28172829 24.00047 91.95625829 C24.00147136 107.43124419 23.98314462 122.90614744 23.95410156 138.38110352 C23.92592161 153.40390529 23.91176022 168.42663432 23.91308594 183.44946289 C23.91320581 184.83753348 23.91320581 184.83753348 23.9133281 186.2536459 C23.91344916 187.63929599 23.91344916 187.63929599 23.91357267 189.052939 C23.91495178 206.14712852 23.90317617 223.24128709 23.88526624 240.33546658 C23.87922942 246.38500263 23.87710663 252.434533 23.87620163 258.48407173 C23.87483841 265.85356033 23.8659236 273.22299675 23.84753601 280.5924632 C23.83829204 284.35393165 23.83221197 288.1153333 23.83472443 291.87681389 C23.83731317 295.94993803 23.82443946 300.02286354 23.80990601 304.09596252 C23.81300321 305.29098548 23.81610041 306.48600844 23.81929147 307.71724421 C23.81284258 308.80546093 23.80639369 309.89367766 23.79974937 311.01487064 C23.79834052 311.95538558 23.79693167 312.89590052 23.79548013 313.86491591 C23.52701217 316.50204068 22.94108154 318.11351143 21.54248047 320.35009766 C16.79741514 323.78378462 10.27654997 322.68351037 4.69799805 322.66577148 C2.61502684 322.66261289 0.53347927 322.68608285 -1.54931641 322.71142578 C-2.86867188 322.71207031 -4.18802734 322.71271484 -5.54736328 322.71337891 C-6.75255615 322.71635986 -7.95774902 322.71934082 -9.19946289 322.72241211 C-12.81812089 322.30888993 -14.64317779 321.64687371 -17.45751953 319.35009766 C-19.21433488 315.78558953 -19.70830303 312.90759093 -19.71199512 308.95708561 C-19.71782732 307.88142812 -19.72365951 306.80577063 -19.72966844 305.69751745 C-19.72588911 304.52165325 -19.72210979 303.34578905 -19.71821594 302.1342926 C-19.72204149 300.8806033 -19.72586704 299.62691399 -19.72980851 298.33523411 C-19.74010118 294.85779991 -19.73790348 291.38046867 -19.73362792 287.90302598 C-19.731163 284.1517598 -19.74017191 280.40051855 -19.74766541 276.64926147 C-19.76042079 269.30121384 -19.76220507 261.95320272 -19.75986514 254.60514588 C-19.75808283 248.6332486 -19.75982976 242.66136242 -19.76408958 236.68946648 C-19.76468477 235.83984036 -19.76527996 234.99021425 -19.76589319 234.11484189 C-19.76710492 232.38888495 -19.76831906 230.662928 -19.76953556 228.93697106 C-19.78041426 212.74767381 -19.778247 196.55839738 -19.77215072 180.36909895 C-19.76698078 165.5553986 -19.77823844 150.74176398 -19.79724894 135.92807663 C-19.81661585 120.72017625 -19.82488538 105.51230699 -19.82112569 90.30439419 C-19.81921196 81.76517412 -19.82171791 73.22601002 -19.83584023 64.6868 C-19.84774037 57.41764161 -19.84917428 50.14857363 -19.83705006 42.87941403 C-19.83115184 39.17031412 -19.83008784 35.46137971 -19.84205246 31.75229073 C-19.85486917 27.73235743 -19.84446936 23.71281981 -19.83174133 19.69288635 C-19.83911562 18.51925287 -19.8464899 17.34561939 -19.85408765 16.13642126 C-19.78709649 6.11299716 -19.78709649 6.11299716 -16.45751953 1.35009766 C-11.86613183 -0.94559619 -5.10027356 0.03853586 0 0 Z " fill="currentColor" transform="translate(460.45751953125,177.64990234375)"/>
<path d="M0 0 C1.10927856 -0.00574036 1.10927856 -0.00574036 2.2409668 -0.01159668 C3.8009579 -0.01431271 5.36099478 -0.00697292 6.92089844 0.00976562 C9.30507186 0.03118327 11.68623249 0.00995737 14.0703125 -0.015625 C15.5885483 -0.01298166 17.10678223 -0.00785656 18.625 0 C19.33551514 -0.00809692 20.04603027 -0.01619385 20.77807617 -0.02453613 C23.80660146 0.03267138 25.92379137 0.28400786 28.50065708 1.92304993 C31.32920714 5.99482922 30.86074417 9.93421191 30.81370544 14.7800293 C30.82200704 16.36125721 30.82200704 16.36125721 30.83047634 17.97442913 C30.84412529 21.51834646 30.82909002 25.06156471 30.81420898 28.60546875 C30.8179906 31.14141134 30.82348933 33.67735186 30.83058167 36.21328735 C30.84311976 42.39313641 30.83695045 48.5727248 30.82190608 54.75256085 C30.80505739 61.94705282 30.8082548 69.14149377 30.81200016 76.33599937 C30.81788064 89.17163202 30.80369984 102.00716662 30.77905273 114.84277344 C30.75513139 127.3017952 30.74804822 139.76068595 30.75854492 152.21972656 C30.76995077 165.78219647 30.77188833 179.34460576 30.75744683 192.90707493 C30.75592096 194.35289573 30.75440061 195.79871654 30.75288582 197.24453735 C30.752128 197.955935 30.75137019 198.66733265 30.75058941 199.40028781 C30.745844 204.41688193 30.74769984 209.43344901 30.75195122 214.45004272 C30.7573885 221.2002463 30.74664978 227.95024114 30.72499657 234.70042038 C30.71941849 237.18207561 30.7189727 239.6637483 30.72394943 242.14540482 C30.72987769 245.52463068 30.71744386 248.90329549 30.70018005 252.2824707 C30.7061901 253.27195552 30.71220014 254.26144033 30.71839231 255.28090954 C30.70995237 256.185123 30.70151243 257.08933645 30.69281673 258.02095032 C30.6917876 258.80100591 30.69075848 259.5810615 30.68969816 260.38475513 C30.20648795 263.13452528 29.20678897 264.50388835 27.3125 266.53125 C22.24051052 268.22191316 16.85166192 267.7565702 11.54345703 267.77148438 C9.45174294 267.78118395 7.36101463 267.81221762 5.26953125 267.84375 C3.93229747 267.8502814 2.5950567 267.85553133 1.2578125 267.859375 C-0.55952393 267.87339355 -0.55952393 267.87339355 -2.41357422 267.88769531 C-5.97685873 267.49974637 -7.84511185 266.67396335 -10.6875 264.53125 C-11.8511031 262.20404379 -11.81578408 260.85889018 -11.82172108 258.26704597 C-11.82617892 257.36681461 -11.83063676 256.46658325 -11.83522969 255.53907216 C-11.83504533 254.54376166 -11.83486097 253.54845116 -11.83467102 252.52297974 C-11.83834771 251.47053664 -11.8420244 250.41809355 -11.8458125 249.33375823 C-11.85688384 245.78386133 -11.86069898 242.23399365 -11.86450195 238.68408203 C-11.87076389 236.14843654 -11.87741045 233.61279198 -11.88441467 231.07714844 C-11.90366637 223.45164869 -11.91424565 215.82615406 -11.92314246 208.20063621 C-11.92752355 204.61185387 -11.93289077 201.02307301 -11.93813133 197.43429184 C-11.95514335 185.50858682 -11.96963878 173.58288273 -11.97688007 161.65716743 C-11.97879004 158.56164677 -11.98071036 155.46612611 -11.98266602 152.37060547 C-11.98314976 151.6012071 -11.9836335 150.83180874 -11.9841319 150.03909527 C-11.99243692 137.56794927 -12.01778189 125.09689905 -12.05024669 112.6257949 C-12.08328736 99.8294499 -12.10132606 87.03315363 -12.10452431 74.23676574 C-12.10669205 67.04897936 -12.11547916 59.86133269 -12.14098549 52.6735878 C-12.16491254 45.91519838 -12.16853708 39.1571044 -12.15822411 32.39866638 C-12.15772639 29.91377298 -12.16411555 27.42886756 -12.17778015 24.94401169 C-12.19535192 21.56019691 -12.18846512 18.17730131 -12.17524719 14.79348755 C-12.18621644 13.80263849 -12.19718568 12.81178944 -12.20848733 11.79091465 C-12.14594693 5.19171702 -12.14594693 5.19171702 -9.87649822 1.92220879 C-6.68927687 -0.10305258 -3.65910631 -0.04169863 0 0 Z " fill="currentColor" transform="translate(370.6875,232.46875)"/>
<path d="M0 0 C0.71590805 -0.00241196 1.4318161 -0.00482391 2.16941833 -0.00730896 C3.67639734 -0.00633321 5.18341339 0.00699583 6.69018555 0.03198242 C8.99326432 0.06636401 11.29251711 0.05261545 13.59570312 0.03320312 C15.06381836 0.04010048 16.53192374 0.04977188 18 0.0625 C18.6855043 0.05754013 19.37100861 0.05258026 20.07728577 0.04747009 C23.12830315 0.12246794 25.08912226 0.38880268 27.61502171 2.14940548 C30.14678236 5.60129099 29.98551319 8.71570754 29.93479919 12.83436584 C29.94310079 14.08588437 29.94310079 14.08588437 29.95157009 15.3626861 C29.96520019 18.16274662 29.95019483 20.96191943 29.93530273 23.76196289 C29.93908503 25.76751586 29.94458432 27.77306623 29.95167542 29.77861023 C29.96565808 35.2289249 29.95444084 40.6789249 29.9379642 46.12922215 C29.92413481 51.82666487 29.9305713 57.52408893 29.93409729 63.22154236 C29.93680086 72.78910405 29.92331037 82.35654039 29.90014648 91.92407227 C29.87352828 102.99520451 29.87179154 114.06612724 29.88353485 125.13728052 C29.89430253 135.7765141 29.88813399 146.41567168 29.87397957 157.05489922 C29.86821176 161.58795398 29.86830866 166.12095327 29.87304497 170.65400887 C29.87780661 175.98838473 29.86774683 181.32253024 29.84609032 186.65686226 C29.84051145 188.61807986 29.84006717 190.57931956 29.84504318 192.54053879 C29.85096997 195.21076085 29.83854143 197.8802724 29.8212738 200.5504303 C29.82728385 201.33271675 29.83329389 202.1150032 29.83948606 202.9209953 C29.77793983 208.12853635 29.77793983 208.12853635 28.09686375 210.571311 C22.95961243 213.83784777 16.47256032 212.81489335 10.60961914 212.81420898 C8.5071181 212.81639479 6.40514258 212.8345617 4.30273438 212.85351562 C2.96224137 212.85645001 1.62174588 212.8584345 0.28125 212.859375 C-0.93554443 212.86348389 -2.15233887 212.86759277 -3.40600586 212.87182617 C-6.46075 212.63702738 -8.10964683 212.41766462 -10.56640625 210.62890625 C-13.14664365 206.90321134 -12.85427415 202.90605209 -12.84056091 198.55079651 C-12.84579759 197.73011261 -12.85103427 196.90942872 -12.85642964 196.06387562 C-12.87144767 193.31019413 -12.87213518 190.55669817 -12.87280273 187.80297852 C-12.8804229 185.83022751 -12.88885015 183.85747949 -12.89802551 181.88473511 C-12.91998894 176.52323128 -12.92877167 171.16178449 -12.93385196 165.80024076 C-12.93749274 162.4519891 -12.94373129 159.10375246 -12.95085335 155.75550652 C-12.97535231 144.07877825 -12.98840113 132.40209445 -12.99194336 120.7253418 C-12.99558104 109.83368946 -13.025492 98.94231851 -13.06734794 88.05075222 C-13.10200846 78.70458874 -13.11749105 69.35851872 -13.11818939 60.01229137 C-13.11898353 54.42796859 -13.12778501 48.84393247 -13.15618706 43.25967598 C-13.18229564 38.00894082 -13.18461321 32.75873151 -13.16853142 27.50796127 C-13.16671129 25.57981536 -13.17345821 23.6516397 -13.18935013 21.72355843 C-13.20971155 19.09307809 -13.19931849 16.46445494 -13.18113708 13.83399963 C-13.19433705 13.06921171 -13.20753702 12.30442379 -13.22113699 11.51646048 C-13.15891974 7.58138922 -12.69675775 5.79614267 -10.24882603 2.65553188 C-6.83904851 0.07937189 -4.11605692 -0.07984365 0 0 Z " fill="currentColor" transform="translate(288.56640625,287.37109375)"/>
<path d="M0 0 C1.0759845 -0.00218285 1.0759845 -0.00218285 2.17370605 -0.00440979 C3.68664624 -0.00275366 5.19960376 0.00877585 6.71240234 0.02954102 C9.02384234 0.05850094 11.33298775 0.05014532 13.64453125 0.03710938 C15.11719861 0.04334728 16.58985875 0.05173865 18.0625 0.0625 C19.09546204 0.05809654 19.09546204 0.05809654 20.14929199 0.05360413 C23.17650649 0.11290819 25.27022734 0.35066002 27.93554688 1.83569336 C30.93682529 4.95865764 30.65847646 8.22689269 30.66496277 12.33470154 C30.66922775 13.55309723 30.67349274 14.77149292 30.67788696 16.02680969 C30.67753744 17.37911991 30.67707591 18.73143009 30.67651367 20.08374023 C30.67950544 21.50624683 30.68290801 22.92875261 30.68669128 24.35125732 C30.69553316 28.21693178 30.69786946 32.08258411 30.69850707 35.9482677 C30.69945613 39.17399965 30.70313434 42.39972643 30.70667917 45.62545639 C30.71482426 53.2347633 30.71726333 60.84405837 30.71655273 68.45336914 C30.71595175 76.30649555 30.72650749 84.15955332 30.7422964 92.01266235 C30.75536474 98.75243562 30.76073694 105.49218643 30.76009732 112.23197228 C30.75984215 116.25849289 30.76270406 120.28495249 30.77327538 124.31146049 C30.78294463 128.09779006 30.78304365 131.88400013 30.77575874 135.67033386 C30.77471147 137.06029497 30.77708423 138.45026347 30.7831192 139.84021187 C30.79082153 141.73696034 30.7850029 143.6337494 30.77848816 145.53050232 C30.77903293 146.59219855 30.77957769 147.65389479 30.78013897 148.74776363 C30.52785354 151.53359879 30.02904055 153.1563575 28.53125 155.49609375 C23.78618467 158.92978072 17.2653195 157.82950647 11.68676758 157.81176758 C9.60379637 157.80860898 7.5222488 157.83207894 5.43945312 157.85742188 C4.12009766 157.85806641 2.80074219 157.85871094 1.44140625 157.859375 C0.23621338 157.86235596 -0.96897949 157.86533691 -2.21069336 157.8684082 C-6.04408957 157.43034682 -8.72060881 156.24423494 -11.46875 153.49609375 C-11.57410666 151.58171156 -11.60842245 149.66340398 -11.61592102 147.74613953 C-11.62307632 146.49683655 -11.63023163 145.24753357 -11.63760376 143.96037292 C-11.64044432 142.56301905 -11.64315601 141.1656649 -11.64575195 139.76831055 C-11.65201371 138.30668983 -11.65866025 136.84507072 -11.66566467 135.38345337 C-11.68310173 131.40197159 -11.69363385 127.42050184 -11.7018702 123.43899131 C-11.70701477 120.95327592 -11.71309075 118.46756431 -11.71938133 115.98185158 C-11.7384412 108.2098778 -11.75267047 100.43791358 -11.7609933 92.66592091 C-11.77076881 83.68478928 -11.79709303 74.70390391 -11.83749419 65.72285908 C-11.86762426 58.78779979 -11.88245922 51.85281121 -11.88577431 44.91768771 C-11.88812846 40.77256126 -11.8971356 36.62769765 -11.92223549 32.48264122 C-11.94546702 28.582981 -11.94976958 24.68375758 -11.93947411 20.78404617 C-11.93897742 19.35214729 -11.94533697 17.92022728 -11.95903015 16.48839378 C-11.97666982 14.53467494 -11.9672835 12.5807676 -11.95649719 10.6269989 C-11.95888555 9.53320765 -11.9612739 8.43941641 -11.96373463 7.31247997 C-10.770902 0.52544618 -6.01973941 -0.09820151 0 0 Z " fill="currentColor" transform="translate(205.46875,342.50390625)"/>
<path d="M0 0 C2.15566989 -0.00437403 4.30929153 -0.04071884 6.46459961 -0.07861328 C7.84284786 -0.08448213 9.22110577 -0.08845107 10.59936523 -0.09033203 C11.84645264 -0.0985498 13.09354004 -0.10676758 14.37841797 -0.11523438 C18.34698062 0.46033881 19.97991756 1.48690993 22.72827148 4.37060547 C23.65396967 7.15027228 23.85526352 9.69781985 23.86198425 12.61436462 C23.86624924 13.45405289 23.87051422 14.29374115 23.87490845 15.15887451 C23.87445526 16.07171204 23.87400208 16.98454956 23.87353516 17.92504883 C23.87689377 18.89295853 23.88025238 19.86086823 23.88371277 20.85810852 C23.89321471 24.05890179 23.89516543 27.25964272 23.89624023 30.46044922 C23.89945305 32.68477907 23.90281714 34.90910871 23.90632629 37.13343811 C23.91231546 41.79640188 23.91416638 46.45934711 23.91357422 51.12231445 C23.91347254 57.09894337 23.92713141 63.07545363 23.94434643 69.05205441 C23.95546082 73.64596605 23.95749361 78.23984894 23.95696449 82.83377266 C23.9581452 85.03739392 23.96257202 87.24101591 23.97029686 89.44462395 C23.98008645 92.52542329 23.97722282 95.60596413 23.97119141 98.68676758 C23.97681091 99.59758087 23.98243042 100.50839417 23.98822021 101.44680786 C23.96642767 105.82407506 23.92083245 109.4489619 21.72827148 113.37060547 C17.86703196 116.52175174 14.70968402 116.74598566 9.81811523 116.73388672 C7.83908203 116.73291992 7.83908203 116.73291992 5.82006836 116.73193359 C5.13807373 116.72363525 4.4560791 116.71533691 3.75341797 116.70678711 C1.66847208 116.6831361 -0.41519756 116.68624098 -2.50024414 116.69287109 C-14.1491432 116.63021198 -14.1491432 116.63021198 -17.27172852 114.37060547 C-19.02134161 111.47967584 -19.52235545 109.32632015 -19.5256958 105.96826172 C-19.53133545 105.09347168 -19.5369751 104.21868164 -19.54278564 103.31738281 C-19.53873718 102.36557129 -19.53468872 101.41375977 -19.53051758 100.43310547 C-19.53402222 99.4245752 -19.53752686 98.41604492 -19.5411377 97.37695312 C-19.54994405 94.041434 -19.54410963 90.70612677 -19.53735352 87.37060547 C-19.53870048 85.0541988 -19.54064127 82.73779241 -19.54315186 80.42138672 C-19.54610164 75.5658906 -19.5418101 70.71046804 -19.5324707 65.85498047 C-19.52107632 59.6271377 -19.52763656 53.3994673 -19.53961563 47.17163086 C-19.54683812 42.38817035 -19.54454449 37.6047508 -19.53936005 32.82128906 C-19.53802463 30.52473938 -19.53966749 28.22818599 -19.54431915 25.93164062 C-19.54939067 22.72369518 -19.5416651 19.51603001 -19.53051758 16.30810547 C-19.53456604 15.35629395 -19.5386145 14.40448242 -19.54278564 13.42382812 C-19.537146 12.54903809 -19.53150635 11.67424805 -19.5256958 10.77294922 C-19.52494175 10.0148999 -19.5241877 9.25685059 -19.5234108 8.47583008 C-19.2335374 6.05115158 -18.53100141 4.45280671 -17.27172852 2.37060547 C-12.46927761 -1.12650691 -5.69063144 -0.00129553 0 0 Z " fill="currentColor" transform="translate(47.271728515625,383.62939453125)"/>
<path d="M0 0 C2.09171409 -0.00969958 4.1824424 -0.04073325 6.27392578 -0.07226562 C7.61115956 -0.07879702 8.94840033 -0.08404696 10.28564453 -0.08789062 C12.10298096 -0.10190918 12.10298096 -0.10190918 13.95703125 -0.11621094 C17.52031576 0.27173801 19.38856888 1.09752103 22.23095703 3.24023438 C23.39015976 5.55863982 23.36148762 6.89696219 23.37139893 9.47799683 C23.37710907 10.36686584 23.38281921 11.25573486 23.38870239 12.17153931 C23.38982025 13.14924286 23.39093811 14.12694641 23.39208984 15.13427734 C23.3995372 16.67589539 23.3995372 16.67589539 23.40713501 18.24865723 C23.42178025 21.65991884 23.42856237 25.07113395 23.43408203 28.48242188 C23.43983128 30.84652712 23.44558904 33.21063234 23.45135498 35.57473755 C23.46187152 40.53631814 23.46771 45.49788249 23.47119141 50.45947266 C23.47667926 56.82416925 23.50071096 63.18865224 23.52916336 69.55328178 C23.54776538 74.43796419 23.55299403 79.32259488 23.55452728 84.20730972 C23.55755955 86.55411065 23.56560729 88.90091055 23.57871246 91.24767685 C23.59572274 94.52775181 23.59390489 97.80730146 23.58740234 101.08740234 C23.60122452 102.54788498 23.60122452 102.54788498 23.61532593 104.03787231 C23.60975677 104.93238098 23.60418762 105.82688965 23.59844971 106.74850464 C23.59991627 107.52390028 23.60138283 108.29929592 23.60289383 109.0981884 C23.1254211 111.84803341 22.12422899 113.21361675 20.23095703 115.24023438 C15.15896755 116.93089754 9.77011895 116.46555457 4.46191406 116.48046875 C2.37019997 116.49016833 0.27947166 116.521202 -1.81201172 116.55273438 C-3.14924549 116.55926577 -4.48648627 116.56451571 -5.82373047 116.56835938 C-7.64106689 116.58237793 -7.64106689 116.58237793 -9.49511719 116.59667969 C-13.0584017 116.20873074 -14.92665482 115.38294772 -17.76904297 113.24023438 C-18.92824569 110.92182893 -18.89957356 109.58350656 -18.90948486 107.00247192 C-18.91519501 106.11360291 -18.92090515 105.22473389 -18.92678833 104.30892944 C-18.92790619 103.33122589 -18.92902405 102.35352234 -18.93017578 101.34619141 C-18.93514069 100.31844604 -18.94010559 99.29070068 -18.94522095 98.23181152 C-18.95986619 94.82054991 -18.96664831 91.4093348 -18.97216797 87.99804688 C-18.97791722 85.63394163 -18.98367497 83.26983641 -18.98944092 80.9057312 C-18.99995746 75.94415061 -19.00579594 70.98258626 -19.00927734 66.02099609 C-19.0147652 59.6562995 -19.0387969 53.29181651 -19.0672493 46.92718697 C-19.08585131 42.04250456 -19.09107997 37.15787387 -19.09261322 32.27315903 C-19.09564549 29.9263581 -19.10369322 27.5795582 -19.1167984 25.2327919 C-19.13380868 21.95271694 -19.13199082 18.67316729 -19.12548828 15.39306641 C-19.13470306 14.41941132 -19.14391785 13.44575623 -19.15341187 12.44259644 C-19.14784271 11.54808777 -19.14227356 10.6535791 -19.13653564 9.73196411 C-19.1380022 8.95656847 -19.13946877 8.18117283 -19.14097977 7.38228035 C-18.66350703 4.63243534 -17.66231493 3.266852 -15.76904297 1.24023438 C-10.69705349 -0.45042879 -5.30820488 0.01491418 0 0 Z " fill="currentColor" transform="translate(129.76904296875,383.759765625)"/>
</svg>
